<svg width="500" height="500" viewBox="0 0 500 500" fill="none" xmlns="http://www.w3.org/2000/svg">
<path d="M312.75 500H187.25C83.83 500 0 416.17 0 312.75V187.25C0 83.83 83.83 0 187.25 0H312.75C416.17 0 500 83.83 500 187.25V312.75C500 416.17 416.17 500 312.75 500Z" fill="#2C3037"/>
<path d="M428.401 231.695V231.681C428.401 210.213 410.992 192.818 389.525 192.818L293.754 192.818C272.293 192.839 254.898 210.234 254.877 231.695L254.948 235.414L244.751 235.428L244.752 231.695C244.744 210.22 227.335 192.811 205.861 192.804L110.069 192.825C88.6082 192.846 71.2134 210.241 71.1921 231.702L71.1922 267.906C71.1992 289.381 88.6082 306.79 110.083 306.797L205.811 306.811C227.272 306.775 244.667 289.381 244.702 267.92L244.688 264.172H254.898L254.898 267.934L254.898 267.948C254.898 289.416 272.307 306.811 293.775 306.811L389.546 306.782C411.006 306.747 428.387 289.352 428.408 267.892L428.401 231.695ZM205.861 278.095L110.069 278.074C104.511 277.947 100.042 273.478 99.9148 267.92L99.929 231.702C99.936 226.094 104.476 221.555 110.083 221.548L205.861 221.512C211.468 221.52 216.008 226.059 216.015 231.667L216.008 235.464L197.488 235.457L197.489 264.165L216.001 264.165L216.036 267.934C216.022 273.548 211.475 278.095 205.861 278.095ZM389.503 278.046L293.747 278.031C288.189 277.904 283.72 273.435 283.593 267.877L283.579 264.13H311.976L311.976 235.421H283.579L283.579 231.688C283.593 226.073 288.133 221.534 293.747 221.52L389.532 221.534C389.546 221.534 389.546 221.534 389.56 221.534C395.167 221.541 399.707 226.095 399.7 231.702L399.672 267.877C399.65 273.485 395.111 278.024 389.503 278.046Z" fill="white"/>
</svg>

